<?xml version="1.0" standalone="no"?>
<!DOCTYPE svg PUBLIC "-//W3C//DTD SVG 20010904//EN"
 "http://www.w3.org/TR/2001/REC-SVG-20010904/DTD/svg10.dtd">
<svg version="1.0" xmlns="http://www.w3.org/2000/svg"
 width="512.000000pt" height="512.000000pt" viewBox="0 0 512.000000 512.000000"
 preserveAspectRatio="xMidYMid meet">

<g transform="translate(0.000000,512.000000) scale(0.100000,-0.100000)"
fill="#000000" stroke="none">
<path d="M2406 4559 c-303 -35 -596 -175 -788 -377 -126 -133 -193 -256 -273
-502 -196 -603 -340 -1531 -416 -2686 l-12 -182 43 -38 c625 -566 1526 -758
2331 -498 329 106 587 253 873 499 l58 50 -6 160 c-10 235 -43 666 -72 935
-107 997 -299 1761 -528 2104 -251 375 -737 590 -1210 535z m364 -384 c207
-43 396 -167 506 -333 82 -122 154 -321 190 -517 22 -122 30 -468 14 -622 -40
-396 -170 -853 -312 -1095 -24 -40 -77 -107 -118 -148 -121 -122 -234 -167
-445 -177 -469 -21 -694 210 -868 892 -77 302 -107 523 -107 790 1 435 99 765
289 967 83 88 123 119 226 171 171 87 413 115 625 72z"/>
<path d="M1820 3113 c-41 -13 -61 -29 -75 -60 -23 -47 -13 -95 26 -127 29 -25
36 -26 152 -26 141 0 180 14 195 72 17 64 -15 121 -77 138 -36 10 -193 13
-221 3z"/>
<path d="M3074 3110 c-86 -27 -105 -145 -31 -190 27 -17 51 -20 154 -20 116 0
123 1 152 26 55 46 51 132 -8 171 -20 13 -50 18 -131 20 -58 1 -119 -2 -136
-7z"/>
<path d="M2010 2838 c-20 -6 -71 -8 -116 -5 -88 6 -104 0 -104 -40 0 -33 39
-46 140 -46 128 0 203 35 174 81 -13 21 -47 24 -94 10z"/>
<path d="M3023 2839 c-37 -38 0 -72 96 -89 131 -23 233 10 197 64 -11 18 -24
21 -112 21 -54 1 -115 5 -134 9 -24 5 -39 4 -47 -5z"/>
<path d="M2437 1809 c-80 -12 -126 -36 -145 -76 -14 -30 -14 -36 0 -66 29 -62
68 -72 268 -72 200 0 239 10 268 72 14 30 14 36 0 66 -20 42 -64 64 -154 77
-80 11 -155 11 -237 -1z"/>
</g>
</svg>
